<?xml version="1.0" standalone="no"?>
<!DOCTYPE svg PUBLIC "-//W3C//DTD SVG 20010904//EN"
 "http://www.w3.org/TR/2001/REC-SVG-20010904/DTD/svg10.dtd">
<svg version="1.0" xmlns="http://www.w3.org/2000/svg"
 width="512.000000pt" height="512.000000pt" viewBox="0 0 512.000000 512.000000"
 preserveAspectRatio="xMidYMid meet">
<metadata>
Created by potrace 1.16, written by Peter Selinger 2001-2019
</metadata>
<g transform="translate(0.000000,512.000000) scale(0.100000,-0.100000)"
fill="#000000" stroke="none">
<path d="M3180 4554 c-360 -42 -704 -193 -983 -432 -356 -305 -596 -786 -601
-1207 l-1 -120 168 -3 167 -2 0 83 c0 381 226 800 569 1057 255 192 558 294
871 293 801 -1 1447 -684 1407 -1488 -7 -141 -24 -236 -68 -371 -175 -547
-686 -946 -1256 -981 l-103 -6 0 -169 0 -168 48 0 c76 0 226 19 327 39 356 75
709 282 953 561 197 225 337 505 403 802 30 134 38 470 15 623 -51 350 -215
685 -458 940 -218 228 -442 374 -720 466 -191 64 -285 80 -508 84 -107 2 -211
1 -230 -1z"/>
<path d="M3235 3920 c-526 -56 -972 -511 -1002 -1022 l-6 -108 172 0 171 0 0
73 c0 92 29 199 83 302 32 62 65 103 142 180 89 90 112 107 205 153 115 57
183 77 290 88 l70 7 0 168 0 169 -27 -1 c-16 -1 -60 -5 -98 -9z"/>
<path d="M1155 3603 c-563 -51 -1043 -491 -1140 -1047 -17 -99 -20 -334 -5
-436 35 -245 170 -509 355 -696 178 -180 376 -291 625 -351 99 -24 124 -26
443 -30 l337 -5 0 170 0 170 -327 5 c-289 4 -336 6 -398 24 -411 117 -689 454
-712 863 -3 59 0 140 6 185 16 110 69 259 127 357 66 111 211 256 322 322 133
79 321 136 450 136 l52 0 0 170 0 170 -47 -2 c-27 -1 -66 -3 -88 -5z"/>
<path d="M2395 1898 c-88 -84 -222 -211 -298 -283 l-138 -130 108 -117 c59
-64 115 -116 123 -117 8 0 56 38 105 86 l90 86 3 -427 2 -426 170 0 170 0 2
425 3 425 97 -90 96 -90 111 117 c61 64 111 122 111 128 0 7 -21 32 -47 55
-27 24 -84 77 -128 119 -257 245 -413 391 -416 391 -2 0 -76 -69 -164 -152z"/>
</g>
</svg>
